<svg width="100" height="100" viewBox="0 0 100 100" xmlns="http://www.w3.org/2000/svg">
  <circle cx="50" cy="42" r="36" fill="#E11D48" opacity="0.12"/>
  <circle cx="50" cy="42" r="24" fill="#E11D48" opacity="0.2"/>
  <path d="M50 22 C38 22, 22 34, 22 48 C22 64, 36 74, 50 74 C64 74, 78 64, 78 48 C78 34, 62 22, 50 22 Z" fill="none" stroke="#E11D48" stroke-width="3"/>
  <path d="M50 28 C44 32, 34 40, 37 50 C40 60, 50 64, 50 64" fill="none" stroke="#E11D48" stroke-width="2.5" opacity="0.5"/>
  <path d="M50 28 C56 32, 66 40, 63 50 C60 60, 50 64, 50 64" fill="none" stroke="#E11D48" stroke-width="2.5" opacity="0.5"/>
  <path d="M50 74 L50 92" stroke="#E11D48" stroke-width="3" stroke-linecap="round"/>
  <path d="M50 84 C44 78, 38 78, 34 80" fill="none" stroke="#E11D48" stroke-width="2.5" stroke-linecap="round"/>
</svg>
